<?xml version="1.0" standalone="no"?>
<!DOCTYPE svg PUBLIC "-//W3C//DTD SVG 20010904//EN"
 "http://www.w3.org/TR/2001/REC-SVG-20010904/DTD/svg10.dtd">
<svg version="1.0" xmlns="http://www.w3.org/2000/svg"
 width="280.000000pt" height="280.000000pt" viewBox="0 0 280.000000 280.000000"
 preserveAspectRatio="xMidYMid meet">
<metadata>
Created by potrace 1.11, written by Peter Selinger 2001-2013
</metadata>
<g transform="translate(0.000000,280.000000) scale(0.100000,-0.100000)"
fill="#000000" stroke="none">
<path d="M2120 2624 c0 -13 134 -114 152 -114 34 0 -23 58 -94 95 -49 26 -58
29 -58 19z"/>
<path d="M1745 2610 c-6 -10 100 -50 133 -50 16 0 22 4 17 9 -15 14 -144 50
-150 41z"/>
<path d="M1435 2490 c3 -5 28 -10 55 -10 27 0 52 5 55 10 4 6 -17 10 -55 10
-38 0 -59 -4 -55 -10z"/>
<path d="M1916 2482 c-28 -27 52 -122 104 -122 73 0 18 95 -71 120 -15 5 -30
6 -33 2z"/>
<path d="M1590 2440 c-13 -9 -11 -14 13 -35 45 -40 107 -46 107 -11 0 32 -90
66 -120 46z"/>
<path d="M2267 2413 c-31 -31 29 -161 84 -181 36 -14 49 -4 49 36 0 43 -39
103 -85 132 -36 22 -39 23 -48 13z"/>
<path d="M1220 2325 c-23 -13 -23 -14 -4 -15 11 0 29 7 40 15 26 19 -1 20 -36
0z"/>
<path d="M1315 2311 c-9 -16 40 -35 70 -27 15 4 25 12 22 19 -5 15 -83 22 -92
8z"/>
<path d="M1727 2293 c-27 -26 34 -113 79 -113 31 0 40 32 18 69 -23 39 -78 64
-97 44z"/>
<path d="M1440 2231 c0 -24 36 -51 67 -51 18 0 23 6 23 25 0 27 -25 45 -64 45
-19 0 -26 -5 -26 -19z"/>
<path d="M2022 2238 c-29 -29 6 -133 54 -159 51 -27 83 46 49 111 -26 51 -77
74 -103 48z"/>
<path d="M1125 2129 c-4 -6 -5 -13 -2 -16 8 -7 47 7 47 18 0 13 -37 11 -45 -2z"/>
<path d="M1556 2114 c-14 -35 44 -97 74 -79 18 11 11 51 -13 73 -27 26 -52 28
-61 6z"/>
<path d="M1207 2114 c-11 -11 13 -34 35 -34 13 0 18 6 16 18 -3 17 -38 29 -51
16z"/>
<path d="M2285 2070 c-21 -41 -19 -99 8 -150 49 -99 131 -38 113 84 -13 84
-90 127 -121 66z"/>
<path d="M1831 2081 c-22 -14 -18 -76 6 -108 25 -34 45 -39 68 -17 22 23 14
78 -16 110 -24 26 -36 29 -58 15z"/>
<path d="M1295 2061 c-7 -12 22 -41 41 -41 21 0 17 28 -5 40 -24 12 -28 12
-36 1z"/>
<path d="M1380 1971 c0 -10 7 -24 15 -31 12 -10 16 -9 21 4 6 16 -11 46 -27
46 -5 0 -9 -8 -9 -19z"/>
<path d="M1647 1953 c-23 -22 8 -95 37 -91 40 6 28 98 -13 98 -10 0 -21 -3
-24 -7z"/>
<path d="M2046 1925 c-19 -28 -21 -79 -5 -124 13 -38 36 -52 66 -40 30 11 45
43 46 95 1 78 -71 125 -107 69z"/>
<path d="M965 1892 c-50 -31 -64 -50 -65 -82 0 -37 32 -60 85 -60 96 0 167 56
145 114 -20 53 -103 67 -165 28z"/>
<path d="M1321 1884 c-35 -44 -28 -68 29 -103 48 -29 141 -30 170 -1 23 23 24
36 6 68 -22 41 -66 62 -128 62 -49 0 -59 -3 -77 -26z"/>
<path d="M1862 1805 c-18 -38 -15 -80 7 -106 16 -20 23 -22 38 -13 33 20 47
62 34 105 -10 33 -16 39 -40 39 -20 0 -31 -7 -39 -25z"/>
<path d="M634 1801 c-60 -37 -98 -116 -68 -145 48 -49 187 34 187 112 0 50
-62 68 -119 33z"/>
<path d="M1150 1733 c-32 -22 -40 -33 -40 -61 0 -36 59 -57 120 -42 58 14 81
46 60 84 -20 39 -96 49 -140 19z"/>
<path d="M2222 1724 c-56 -39 -78 -159 -36 -205 40 -44 116 1 133 79 22 104
-31 173 -97 126z"/>
<path d="M352 1614 c-43 -52 -58 -148 -25 -161 40 -15 125 124 108 177 -10 32
-50 25 -83 -16z"/>
<path d="M859 1633 c-56 -34 -75 -114 -31 -125 59 -16 152 40 152 91 0 15 -5
32 -12 39 -17 17 -78 14 -109 -5z"/>
<path d="M1995 1586 c-34 -45 -43 -98 -21 -131 13 -20 22 -24 39 -19 60 18
100 98 77 153 -18 44 -60 43 -95 -3z"/>
<path d="M1031 1484 c-33 -27 -39 -52 -19 -72 41 -41 154 32 126 81 -14 26
-71 22 -107 -9z"/>
<path d="M601 1459 c-39 -43 -49 -95 -23 -122 20 -20 20 -20 56 3 44 27 68 70
64 113 -3 28 -7 32 -35 35 -26 3 -39 -3 -62 -29z"/>
<path d="M206 1388 c-9 -36 -7 -168 3 -168 10 0 17 34 27 128 5 52 4 62 -9 62
-8 0 -17 -10 -21 -22z"/>
<path d="M2438 1384 c-5 -4 -8 -19 -8 -33 0 -18 3 -22 11 -14 6 6 9 21 7 33
-1 12 -6 18 -10 14z"/>
<path d="M860 1357 c-14 -7 -34 -29 -45 -50 l-20 -37 21 -21 c20 -20 23 -20
53 -4 39 20 70 78 55 103 -14 22 -33 25 -64 9z"/>
<path d="M2027 1348 c-39 -29 -77 -92 -77 -128 0 -67 84 -75 146 -14 67 68 62
164 -9 164 -17 0 -45 -10 -60 -22z"/>
<path d="M2362 1308 c-15 -15 -16 -38 -1 -38 12 0 38 29 39 43 0 11 -25 8 -38
-5z"/>
<path d="M440 1275 c-16 -19 -24 -85 -16 -129 13 -71 62 -28 73 64 5 44 3 55
-12 66 -24 18 -30 17 -45 -1z"/>
<path d="M2260 1255 c-12 -14 -6 -35 10 -35 14 0 41 31 35 41 -9 14 -31 11
-45 -6z"/>
<path d="M2142 1223 c2 -12 12 -18 28 -18 36 0 33 29 -3 33 -23 3 -28 0 -25
-15z"/>
<path d="M1020 1198 c-16 -26 -17 -35 -7 -45 18 -18 51 -5 71 28 20 34 14 49
-20 49 -17 0 -30 -10 -44 -32z"/>
<path d="M2561 1200 c-1 -8 -4 -26 -7 -40 -5 -19 -4 -22 5 -14 7 6 11 24 8 40
-2 16 -5 22 -6 14z"/>
<path d="M700 1170 c-36 -36 -40 -103 -8 -124 26 -16 56 19 64 76 6 40 4 47
-15 57 -17 9 -24 8 -41 -9z"/>
<path d="M2477 1107 c-28 -27 -33 -57 -10 -64 17 -6 45 42 41 69 l-3 23 -28
-28z"/>
<path d="M1192 1107 c-42 -50 -33 -135 20 -188 51 -51 118 -29 118 40 0 98
-95 200 -138 148z"/>
<path d="M932 1074 c-18 -12 -22 -24 -20 -52 2 -19 8 -37 15 -39 21 -7 54 40
51 71 -4 36 -16 41 -46 20z"/>
<path d="M370 1043 c0 -4 7 -34 16 -67 20 -74 39 -99 30 -41 -9 63 -26 115
-36 115 -6 0 -10 -3 -10 -7z"/>
<path d="M2319 1032 c-27 -23 -20 -52 14 -52 27 0 57 28 57 53 0 23 -41 22
-71 -1z"/>
<path d="M1947 1033 c-4 -3 -7 -14 -7 -24 0 -41 92 -53 98 -13 4 29 -69 60
-91 37z"/>
<path d="M2132 1008 c-18 -18 -15 -36 7 -48 28 -14 46 -13 71 8 32 26 17 52
-29 52 -20 0 -42 -5 -49 -12z"/>
<path d="M604 955 c-8 -32 16 -99 38 -103 22 -4 33 60 16 96 -18 37 -45 41
-54 7z"/>
<path d="M1422 968 c-7 -7 -12 -28 -12 -48 0 -70 94 -144 134 -105 31 31 12
91 -44 139 -34 28 -59 33 -78 14z"/>
<path d="M1130 935 c-13 -16 -7 -45 9 -45 11 0 31 32 31 49 0 16 -26 13 -40
-4z"/>
<path d="M1687 943 c-16 -15 -5 -57 22 -84 46 -46 105 -36 99 17 -5 45 -94 94
-121 67z"/>
<path d="M867 912 c-19 -21 -21 -45 -7 -73 22 -40 50 -17 50 41 0 39 -22 55
-43 32z"/>
<path d="M2574 881 c-25 -39 -28 -61 -6 -47 13 8 45 76 39 83 -3 3 -18 -14
-33 -36z"/>
<path d="M1100 836 c-8 -11 -9 -20 0 -36 14 -25 30 -17 30 15 0 30 -14 39 -30
21z"/>
<path d="M1928 826 c-42 -31 -2 -86 62 -86 72 0 94 46 38 80 -38 23 -75 25
-100 6z"/>
<path d="M2430 814 c-52 -35 -69 -84 -29 -84 25 0 93 64 87 82 -7 20 -30 20
-58 2z"/>
<path d="M2211 789 c-43 -9 -65 -31 -57 -57 16 -48 131 -25 131 27 0 29 -27
40 -74 30z"/>
<path d="M610 785 c0 -12 40 -84 50 -90 15 -9 13 -1 -12 50 -19 38 -38 58 -38
40z"/>
<path d="M1393 759 c-31 -11 -46 -44 -38 -87 7 -43 19 -60 60 -89 72 -50 135
-36 135 30 0 79 -96 169 -157 146z"/>
<path d="M840 741 c0 -11 11 -33 24 -48 21 -24 25 -26 31 -11 4 9 1 29 -7 45
-16 34 -48 44 -48 14z"/>
<path d="M1660 730 c-11 -11 -20 -28 -20 -39 0 -23 42 -68 75 -81 117 -44 147
63 35 120 -49 25 -65 25 -90 0z"/>
<path d="M1095 730 c-10 -16 5 -50 21 -50 16 0 17 5 8 38 -7 23 -19 29 -29 12z"/>
<path d="M1110 631 c0 -13 29 -35 37 -28 7 8 -15 37 -28 37 -5 0 -9 -4 -9 -9z"/>
<path d="M895 611 c11 -13 29 -28 40 -33 20 -11 20 -11 0 11 -11 13 -29 28
-40 33 -20 11 -20 11 0 -11z"/>
<path d="M2496 554 c-56 -45 -68 -64 -42 -64 12 0 106 92 106 105 0 10 -9 5
-64 -41z"/>
<path d="M1945 578 c-37 -21 -39 -43 -8 -79 35 -41 148 -29 159 16 8 32 -9 52
-55 65 -46 13 -71 12 -96 -2z"/>
<path d="M2263 523 c-25 -5 -75 -52 -70 -66 12 -38 91 -28 140 17 39 37 35 56
-10 55 -21 -1 -48 -4 -60 -6z"/>
<path d="M1625 450 c-32 -36 -2 -90 68 -123 68 -31 137 -13 137 37 0 70 -159
137 -205 86z"/>
<path d="M1938 264 c-35 -18 -36 -48 -3 -70 50 -32 190 2 190 47 0 36 -133 53
-187 23z"/>
<path d="M2320 242 c-90 -34 -140 -72 -94 -72 16 0 164 77 164 86 0 8 -24 3
-70 -14z"/>
</g>
</svg>
